<svg width="200" height="200" viewBox="0 0 200 200" xmlns="http://www.w3.org/2000/svg">
  <defs>
    <linearGradient id="ringGradient" x1="0%" y1="0%" x2="0%" y2="100%">
      <stop offset="0%" style="stop-color:#E0E0E0"/>
      <stop offset="100%" style="stop-color:#A0A0A0"/>
    </linearGradient>
  </defs>

  <circle cx="100" cy="100" r="90" fill="none" stroke="url(#ringGradient)" stroke-width="20"/>
  
  <g>
    <path d="M 100,100 L 20,100 A 80,80 0 0,1 100,20 Z" fill="#0084ff"/>
    
    <path d="M 100,100 L 100,20 A 80,80 0 0,1 180,100 Z" fill="#ff8a00"/>
    
    <path d="M 100,100 L 180,100 A 80,80 0 0,1 100,180 Z" fill="#ffee58"/>
    
    <path d="M 100,100 L 100,180 A 80,80 0 0,1 20,100 Z" fill="#ff1a8d"/>
  </g>
  
  <circle cx="100" cy="100" r="80" fill="none" stroke="black" stroke-width="3"/>
  <line x1="100" y1="20" x2="100" y2="180" stroke="black" stroke-width="3"/>
  <line x1="20" y1="100" x2="180" y2="100" stroke="black" stroke-width="3"/>

</svg>